<svg xmlns="http://www.w3.org/2000/svg" width="111" height="110" fill="none" viewBox="0 0 111 110"><g clip-path="url(#clip0_13_479)"><mask id="mask0_13_479" style="mask-type:luminance" width="98" height="110" x="6" y="0" maskUnits="userSpaceOnUse"><path fill="#fff" d="M6.85938 0H103.167V109.333H6.85938V0Z"/></mask><g mask="url(#mask0_13_479)"><path fill="#5C8DBC" d="M103.13 32.3854C103.13 30.5625 102.74 28.9531 101.953 27.5729C101.182 26.2135 100.031 25.0781 98.4792 24.1771C85.6771 16.7865 72.8698 9.41146 60.0729 2.01041C56.625 0.0156231 53.2813 0.0885396 49.8542 2.10937C44.7604 5.11979 19.2552 19.7656 11.6511 24.1719C8.52606 25.9896 7.00002 28.7656 7.00002 32.3802C6.99481 47.25 7.00002 62.1198 6.99481 76.9948C6.99481 78.7708 7.36981 80.349 8.11981 81.7083C8.89065 83.1042 10.0625 84.276 11.6511 85.1979C19.25 89.6094 44.7604 104.245 49.8542 107.255C53.2813 109.286 56.625 109.354 60.0729 107.359C72.8698 99.9583 85.6823 92.5833 98.4844 85.1927C100.073 84.276 101.24 83.1042 102.016 81.7031C102.766 80.349 103.135 78.7656 103.135 76.9844C103.135 76.9844 103.135 47.2552 103.135 32.3854"/></g><path fill="#1A4674" d="M55.2136 54.5417L8.11981 81.7084C8.89065 83.1042 10.0625 84.2761 11.6511 85.1979C19.25 89.6094 44.7604 104.245 49.8542 107.255C53.2813 109.286 56.625 109.354 60.0729 107.359C72.8698 99.9584 85.6823 92.5834 98.4844 85.1927C100.073 84.2761 101.24 83.1042 102.016 81.7031L55.2136 54.5417Z"/><path fill="#1A4674" d="M41.2656 62.5886C44.0052 67.3802 49.1563 70.6146 55.0677 70.6146C61.0104 70.6146 66.1927 67.3386 68.9219 62.4948L55.2135 54.5417L41.2656 62.5886Z"/><path fill="#1B598E" d="M103.13 32.3854C103.13 30.5625 102.74 28.9531 101.953 27.5729L55.2136 54.5417L102.016 81.7031C102.766 80.349 103.135 78.7656 103.135 76.9844C103.135 76.9844 103.135 47.2552 103.13 32.3854Z"/><path fill="#fff" d="M100.557 56.4792H96.9011V60.1458H93.2448V56.4792H89.5886V52.8177H93.2448V49.1562H96.9011V52.8177H100.557V56.4792Z"/><path fill="#fff" d="M87.2136 56.4792H83.5573V60.1458H79.9011V56.4792H76.2448V52.8177H79.9011V49.1562H83.5573V52.8177H87.2136V56.4792Z"/><path fill="#fff" d="M68.9219 62.4948C66.1927 67.3386 61.0104 70.6146 55.0677 70.6146C49.1563 70.6146 44.0052 67.3802 41.2656 62.5886C39.9323 60.2604 39.1667 57.5625 39.1667 54.6823C39.1667 45.8854 46.2865 38.7552 55.0677 38.7552C60.9375 38.7552 66.0625 41.9479 68.8125 46.6927L82.7083 38.6771C77.1875 29.125 66.875 22.6979 55.0677 22.6979C37.4323 22.6979 23.1406 37.0209 23.1406 54.6823C23.1406 60.4792 24.6771 65.9167 27.3646 70.6042C32.875 80.2084 43.2188 86.6771 55.0677 86.6771C66.9375 86.6771 77.2917 80.1823 82.7917 70.5521L68.9219 62.4948Z"/></g><defs><clipPath id="clip0_13_479"><rect width="110" height="110" fill="#fff" transform="translate(0.5)"/></clipPath></defs></svg>