<svg xmlns="http://www.w3.org/2000/svg" width="92" height="30" fill="none" viewBox="0 0 92 30"><rect width="46" height="30" fill="#F05941"/><path fill="#fff" d="M2.544 23V5.48H4.896V23H2.544ZM4.416 23V20.888H12.912V23H4.416ZM4.416 15.152V13.04H12.168V15.152H4.416ZM4.416 7.592V5.48H12.672V7.592H4.416ZM18.1346 23V5.48H20.4866V23H18.1346ZM20.0066 23V20.888H28.0226V23H20.0066ZM39.9561 23.432C38.3881 23.432 37.0361 23.152 35.9001 22.592C34.7641 22.032 33.8281 21.296 33.0921 20.384C32.3561 19.472 31.8041 18.496 31.4361 17.456C31.0841 16.416 30.9081 15.416 30.9081 14.456V13.928C30.9081 12.888 31.0921 11.84 31.4601 10.784C31.8281 9.728 32.3881 8.768 33.1401 7.904C33.8921 7.024 34.8281 6.32 35.9481 5.792C37.0841 5.264 38.4201 5 39.9561 5C41.4921 5 42.8201 5.264 43.9401 5.792C45.0761 6.32 46.0201 7.024 46.7721 7.904C47.5241 8.768 48.0841 9.728 48.4521 10.784C48.8201 11.84 49.0041 12.888 49.0041 13.928V14.456C49.0041 15.416 48.8201 16.416 48.4521 17.456C48.1001 18.496 47.5561 19.472 46.8201 20.384C46.0841 21.296 45.1481 22.032 44.0121 22.592C42.8761 23.152 41.5241 23.432 39.9561 23.432ZM39.9561 21.272C40.9801 21.272 41.9001 21.08 42.7161 20.696C43.5481 20.312 44.2521 19.792 44.8281 19.136C45.4041 18.464 45.8441 17.712 46.1481 16.88C46.4521 16.032 46.6041 15.144 46.6041 14.216C46.6041 13.24 46.4521 12.328 46.1481 11.48C45.8441 10.632 45.4041 9.888 44.8281 9.248C44.2521 8.592 43.5481 8.08 42.7161 7.712C41.9001 7.344 40.9801 7.16 39.9561 7.16C38.9321 7.16 38.0041 7.344 37.1721 7.712C36.3561 8.08 35.6601 8.592 35.0841 9.248C34.5081 9.888 34.0681 10.632 33.7641 11.48C33.4601 12.328 33.3081 13.24 33.3081 14.216C33.3081 15.144 33.4601 16.032 33.7641 16.88C34.0681 17.712 34.5081 18.464 35.0841 19.136C35.6601 19.792 36.3561 20.312 37.1721 20.696C38.0041 21.08 38.9321 21.272 39.9561 21.272ZM54.0737 23V5.48H57.9137L66.8177 20.888H67.5857L67.1057 21.32V5.48H69.3617V23H65.4737L56.5697 7.592H55.8017L56.2817 7.16V23H54.0737ZM73.7689 23L80.0809 5.48H84.0649L90.5689 23H88.1449L82.2649 7.016L83.4169 7.592H80.5849L81.8089 7.016L76.1209 23H73.7689ZM77.5369 17.768L78.3289 15.656H85.8889L86.6809 17.768H77.5369Z"/></svg>