<svg width="343" height="130" viewBox="0 0 343 130" fill="none" xmlns="http://www.w3.org/2000/svg">
<g clip-path="url(#clip0_152_17639)">
<path d="M340.5 99.8997C227.6 99.8997 114.7 99.8997 1.79968 99.8997C1.49968 99.8997 1.19968 99.8997 0.899681 99.8997H0.799681C0.799681 109.4 0.799681 118.8 0.799681 128.3C0.799681 128.5 0.599681 128.7 0.899681 128.9C114.4 128.9 228 128.9 341.5 128.9V128.8C341.5 128.5 341.5 128.2 341.5 127.9C341.5 118.9 341.5 109.9 341.5 101C341.6 99.6997 341.7 99.8997 340.5 99.8997Z" stroke="#FDFDFD" stroke-width="1.4871" stroke-miterlimit="10"/>
<path d="M0.899414 83.9996C0.899414 83.7996 0.899414 83.5996 0.899414 83.3996C0.899414 67.3996 0.899414 51.2996 0.899414 35.2996C0.899414 35.0996 0.899414 34.8996 0.899414 34.5996C16.1994 34.5996 31.4994 34.5996 46.7994 34.5996C47.0994 34.5996 47.3994 34.5996 47.5994 34.8996C50.0994 37.7996 52.6994 40.5996 55.1994 43.4996C54.8994 43.6996 54.5994 43.5996 54.3994 43.5996C39.9994 43.5996 25.6994 43.5996 11.2994 43.5996C10.1994 43.5996 10.3994 43.4996 10.3994 44.4996C10.3994 47.3996 10.3994 50.2996 10.3994 53.2996C10.3994 53.8996 10.4994 54.0996 11.1994 54.0996C21.6994 54.0996 32.1994 54.0996 42.6994 54.0996C43.4994 54.0996 43.5994 54.2996 43.5994 55.0996C43.5994 57.5996 43.5994 59.9996 43.5994 62.4996C43.5994 63.0996 43.3994 63.1996 42.8994 63.1996C32.2994 63.1996 21.7994 63.1996 11.1994 63.1996C10.4994 63.1996 10.2994 63.2996 10.2994 64.0996C10.2994 67.4996 10.2994 70.9996 10.2994 74.3996C10.2994 74.9996 10.4994 75.1996 11.0994 75.1996C24.9994 75.1996 38.8994 75.1996 52.7994 75.1996C53.0994 75.1996 53.2994 75.0996 53.5994 75.2996C52.8994 76.0996 52.1994 76.7996 51.5994 77.5996C49.7994 79.6996 47.8994 81.6996 46.0994 83.7996C45.8994 84.0996 45.5994 84.1996 45.1994 84.1996C30.4994 83.9996 15.6994 83.9996 0.899414 83.9996Z" fill="#FDFDFD"/>
<path d="M341.4 55.7996C341.3 52.2996 341 48.6996 340 45.2996C338.5 40.0996 335.2 36.6996 329.8 35.3996C327.3 34.7996 324.7 34.5996 322.2 34.5996C310.7 34.5996 299.3 34.5996 287.8 34.5996C287.1 34.5996 287 34.7996 287 35.3996C287 43.2996 287 51.2996 287 59.1996C287 67.1996 287 75.1996 287 83.1996C287 83.6996 287.1 83.8996 287.7 83.8996C299.3 83.8996 310.9 83.8996 322.5 83.8996C324.5 83.8996 326.5 83.6996 328.5 83.2996C333.9 82.1996 337.8 79.2996 339.7 73.9996C340.4 72.0996 340.8 70.0996 341.1 67.9996C341.6 63.9996 341.6 59.8996 341.4 55.7996ZM331.8 66.1996C331.6 67.9996 331.3 69.7996 330.5 71.3996C329.5 73.4996 327.9 74.5996 325.6 74.7996C324.7 74.8996 323.9 74.8996 323 74.8996C314.5 74.8996 305.9 74.8996 297.4 74.8996C296.8 74.8996 296.6 74.6996 296.6 74.0996C296.6 69.0996 296.6 64.1996 296.6 59.1996C296.6 54.1996 296.6 49.2996 296.6 44.2996C296.6 43.6996 296.7 43.4996 297.3 43.4996C306.1 43.4996 314.9 43.4996 323.7 43.4996C324.6 43.4996 325.5 43.5996 326.4 43.6996C328.4 43.9996 329.8 45.1996 330.6 47.0996C331.5 49.1996 331.8 51.3996 331.9 53.6996C332 57.8996 332.1 62.0996 331.8 66.1996Z" fill="#FDFDFD"/>
<path d="M202.999 20.9002C203.699 20.9002 204.299 21.0002 204.999 20.9002C205.399 20.9002 205.499 21.0002 205.499 21.4002C205.499 22.0002 205.499 22.5002 205.499 23.1002C205.399 23.7002 205.699 23.8002 206.199 23.8002C210.999 23.8002 215.799 23.8002 220.499 23.8002C221.799 23.8002 221.799 23.8002 221.799 25.1002C221.799 27.4002 221.799 29.7002 221.799 32.0002C221.799 32.6002 221.599 32.7002 220.999 32.7002C209.999 32.7002 198.999 32.7002 187.999 32.7002C186.999 32.7002 187.099 32.6002 187.099 33.6002C187.099 36.5002 187.099 39.5002 187.099 42.4002C187.099 43.0002 187.299 43.1002 187.899 43.1002C198.499 43.1002 208.999 43.1002 219.599 43.1002C220.299 43.1002 220.499 43.3002 220.499 44.0002C220.499 46.5002 220.499 49.0002 220.499 51.5002C220.499 52.1002 220.299 52.2002 219.799 52.2002C209.199 52.2002 198.699 52.2002 188.099 52.2002C187.399 52.2002 187.199 52.3002 187.199 53.1002C187.199 56.5002 187.199 59.9002 187.199 63.3002C187.199 63.9002 187.399 64.1002 187.999 64.1002C199.099 64.1002 210.099 64.1002 221.199 64.1002C221.899 64.1002 222.099 64.3002 222.099 65.0002C221.999 67.5002 222.099 69.9002 222.099 72.4002C222.099 72.9002 221.999 73.1002 221.399 73.1002C207.099 73.1002 192.699 73.1002 178.399 73.1002C177.799 73.1002 177.699 72.9002 177.699 72.4002C177.699 56.4002 177.699 40.4002 177.699 24.4002C177.699 23.8002 177.899 23.7002 178.399 23.7002C183.399 23.7002 188.499 23.7002 193.499 23.7002C194.099 23.7002 194.299 23.6002 194.199 23.0002C194.199 22.3002 193.999 21.5002 194.299 21.0002C194.699 20.5002 195.599 20.9002 196.199 20.8002C196.399 20.7002 196.599 20.7002 196.799 20.7002C198.599 20.7002 200.499 20.7002 202.299 20.7002C202.599 20.8002 202.799 20.8002 202.999 20.9002Z" fill="#FDFDFD"/>
<path d="M232.399 59.2996C232.399 51.3996 232.399 43.3996 232.399 35.4996C232.399 34.6996 232.599 34.5996 233.299 34.5996C247.399 34.5996 261.599 34.5996 275.699 34.5996C276.499 34.5996 276.599 34.7996 276.599 35.4996C276.599 37.8996 276.599 40.2996 276.599 42.6996C276.599 43.3996 276.499 43.5996 275.699 43.5996C264.699 43.5996 253.799 43.5996 242.799 43.5996C241.999 43.5996 241.899 43.7996 241.899 44.4996C241.899 47.3996 241.899 50.3996 241.899 53.2996C241.899 53.8996 242.099 54.0996 242.699 54.0996C253.199 54.0996 263.799 54.0996 274.299 54.0996C274.999 54.0996 275.199 54.1996 275.199 54.9996C275.099 57.4996 275.199 59.8996 275.199 62.3996C275.199 62.9996 275.099 63.1996 274.399 63.1996C263.899 63.1996 253.299 63.1996 242.799 63.1996C242.099 63.1996 241.899 63.3996 241.899 64.0996C241.899 67.4996 241.899 70.9996 241.899 74.3996C241.899 74.9996 242.099 75.0996 242.599 75.0996C253.699 75.0996 264.799 75.0996 275.799 75.0996C276.499 75.0996 276.699 75.2996 276.699 75.9996C276.699 78.4996 276.699 80.9996 276.699 83.4996C276.699 83.9996 276.599 84.0996 276.099 84.0996C261.799 84.0996 247.399 84.0996 233.099 84.0996C232.499 84.0996 232.399 83.8996 232.399 83.3996C232.399 75.2996 232.399 67.2996 232.399 59.2996Z" fill="#FDFDFD"/>
<path d="M154.5 37.3002C155.9 37.3002 157.3 37.6002 158.7 38.0002C162.7 39.3002 165 42.0002 165.7 46.1002C166.1 48.6002 165.8 51.1002 165.9 53.6002C165.9 53.9002 165.7 54.0002 165.4 54.0002C163.1 54.0002 160.9 54.0002 158.6 54.0002C158.1 54.0002 158.1 53.8002 158.1 53.4002C158.1 51.9002 158.2 50.5002 158 49.0002C157.7 46.3002 156.6 45.3002 153.9 45.2002C151.6 45.1002 149.3 45.2002 147 45.2002C142.9 45.2002 138.8 45.2002 134.7 45.2002C133.9 45.2002 133 45.2002 132.2 45.4002C129.8 45.9002 128.5 47.6002 128.3 50.2002C128.2 51.5002 128.2 52.9002 128.2 54.2002C128.2 58.9002 128.1 63.5002 128.3 68.2002C128.3 68.7002 128.4 69.2002 128.5 69.6002C129.1 72.0002 130.7 73.3002 133.4 73.4002C134.4 73.5002 135.5 73.4002 136.5 73.4002C142.2 73.4002 147.8 73.4002 153.5 73.4002C154.2 73.4002 154.8 73.3002 155.5 73.2002C157.5 72.8002 158.3 71.8002 158.4 69.7002C158.4 68.1002 158.4 66.5002 158.4 64.9002C158.4 64.3002 158.5 64.1002 159.1 64.1002C161.3 64.1002 163.5 64.1002 165.8 64.1002C166.3 64.1002 166.5 64.2002 166.5 64.8002C166.5 67.4002 166.6 70.1002 166.2 72.7002C165.4 77.5002 162.7 80.1002 157.7 81.0002C156.6 81.2002 155.6 81.3002 154.5 81.3002C151.1 81.4002 147.6 81.3002 144.2 81.3002C139.8 81.3002 135.4 81.3002 131 81.3002C130.7 81.3002 130.4 81.2002 130.1 81.0002C124.7 80.0002 121.4 76.5002 120.4 70.8002C120.1 69.2002 120 67.6002 120 65.9002C120 61.2002 120 56.6002 120 51.9002C120 49.9002 120.3 48.0002 120.8 46.1002C122.1 41.3002 125.3 38.6002 130.1 37.6002C130.4 37.2002 130.9 37.3002 131.4 37.2002C134.2 37.2002 136.9 37.2002 139.7 37.2002C143.8 37.2002 147.9 37.2002 152.1 37.2002C152.9 37.3002 153.7 37.3002 154.5 37.3002Z" fill="#FDFDFD"/>
<path d="M130.799 81.0996C131.299 81.0996 131.799 81.0996 132.199 81.0996C139.299 81.0996 146.499 81.0996 153.599 81.0996C153.899 81.0996 154.199 80.9996 154.399 81.1996C151.799 83.6996 149.199 86.1996 146.599 88.7996C146.199 89.1996 145.799 89.2996 145.299 89.2996C132.799 89.2996 120.399 89.2996 107.899 89.2996C107.499 89.2996 107.099 89.2996 106.799 88.8996C100.999 82.5996 95.1994 76.2996 89.3994 70.0996C88.5994 69.1996 87.7994 68.2996 86.8994 67.3996C90.2994 66.1996 92.4994 63.9996 93.6994 60.5996C93.9994 60.9996 94.2994 61.2996 94.5994 61.5996C100.499 67.8996 106.399 74.1996 112.299 80.4996C112.499 80.6996 112.599 80.8996 112.899 80.9996C113.099 81.0996 113.399 80.9996 113.599 80.9996C118.799 80.9996 124.099 80.9996 129.299 80.9996C129.899 81.1996 130.399 81.1996 130.799 81.0996Z" fill="#FDFDFD"/>
<path d="M154.5 37.2996C154.3 37.5996 154 37.3996 153.8 37.3996C146.3 37.3996 138.9 37.3996 131.4 37.3996C131 37.3996 130.5 37.3996 130.1 37.5996C129.9 37.2996 129.6 37.3996 129.4 37.3996C123.3 37.3996 117.3 37.3996 111.2 37.3996C110.7 37.3996 110.4 37.4996 110 37.8996C104.8 43.4996 99.5 49.0996 94.3 54.6996C94.2 54.7996 94.1 54.8996 93.9 55.1996C93.4 53.3996 92.6 51.9996 91.5 50.6996C90.4 49.4996 89 48.4996 87.5 47.9996C87.5 47.6996 87.7 47.5996 87.9 47.3996C90.5 44.5996 93.2 41.8996 95.8 39.0996C98.6 35.9996 101.4 32.8996 104.1 29.6996C104.4 29.2996 104.8 29.0996 105.3 29.0996C118.7 29.0996 132.1 29.0996 145.4 29.0996C145.9 29.0996 146.2 29.1996 146.6 29.5996C149.3 32.2996 151.9 34.7996 154.5 37.2996Z" fill="#FDFDFD"/>
<path d="M203 20.9C200.8 21 198.5 21 196.3 20.9C196.3 18 196.3 15 196.3 12.1C193.2 12.6 190.1 13.1 187 13.7C186.7 13.8 186.4 13.7 186.1 13.7C180.4 12.3 174.5 11.3 168.7 10.2C167.5 10 166.4 9.7 165.2 9.4C164.9 9.3 164.5 9.3 164.5 9C164.5 8.7 164.9 8.7 165.2 8.6C166.3 8.2 167.4 8.1 168.5 8.1C173.6 7.8 178.8 7.9 183.9 8C187.8 8 191.7 8.2 195.6 8.7C195.9 8.7 196.2 8.9 196.2 8.4C196.1 7.6 196.2 6.8 196.9 6.3C197.8 5.6 198.8 5.5 199.8 5.5C200 5.5 200.2 5.6 200.4 5.6C202.1 5.9 202.8 6.7 202.8 8.4C202.8 9.3 202.8 9.2 203.6 9.1C206.6 8.6 209.6 8 212.6 7.5C212.8 7.5 213.1 7.5 213.3 7.5C219.4 9 225.6 10 231.7 11.2C232.6 11.4 233.6 11.6 234.5 11.9C234.7 12 234.9 12 234.9 12.2C234.9 12.4 234.7 12.4 234.5 12.5C233.2 13.1 231.9 13.2 230.5 13.2C223.7 13.5 216.9 13.4 210.1 13.2C207.8 13.1 205.5 13 203.3 12.6C202.8 12.5 202.7 12.7 202.7 13.1C203 15.6 203 18.2 203 20.9Z" fill="#FDFDFD"/>
<path d="M203 20.9998H196.3V7.7998C196.3 6.3998 197.4 5.2998 198.8 5.2998H200.4C201.8 5.2998 202.9 6.3998 202.9 7.7998V20.9998H203Z" fill="#FDFDFD"/>
<path d="M51.6992 84.0002C59.1992 76.0002 66.5992 68.1002 73.9992 60.2002C74.4992 61.9002 75.2992 63.3002 76.3992 64.5002C77.4992 65.7002 78.8992 66.6002 80.3992 67.2002C80.3992 67.5002 80.1992 67.6002 80.0992 67.7002C75.2992 72.9002 70.4992 78.2002 65.6992 83.4002C65.2992 83.8002 64.9992 83.9002 64.4992 83.9002C60.4992 83.9002 56.4992 83.9002 52.5992 83.9002C52.3992 84.0002 52.0992 84.0002 51.6992 84.0002Z" fill="#FDFDFD"/>
<path d="M54.2998 34.5996C58.6998 34.5996 62.9998 34.5996 67.1998 34.5996C67.4998 34.5996 67.6998 34.6996 67.8998 34.8996C71.8998 39.1996 75.8998 43.3996 79.7998 47.6996C79.9998 47.8996 80.1998 47.9996 79.6998 48.1996C76.6998 49.5996 74.6998 51.9996 73.8998 55.2996C73.8998 55.2996 73.7998 55.3996 73.6998 55.4996C67.2998 48.5996 60.8998 41.6996 54.2998 34.5996Z" fill="#FDFDFD"/>
<path d="M83.9994 48.5996C79.0994 48.5996 74.9994 52.6996 74.8994 57.5996C74.8994 62.5996 78.8994 66.6996 83.8994 66.6996C88.8994 66.6996 92.9994 62.6996 92.9994 57.6996C92.9994 52.5996 88.9994 48.5996 83.9994 48.5996ZM83.9994 61.7996C81.6994 61.7996 79.7994 59.8996 79.7994 57.5996C79.7994 55.2996 81.6994 53.4996 83.9994 53.4996C86.2994 53.4996 88.0994 55.3996 88.0994 57.5996C88.0994 59.8996 86.2994 61.7996 83.9994 61.7996Z" fill="#FDFDFD"/>
<path d="M162.1 20.7002C158.3 21.1002 155.4 19.5002 153.4 16.4002C150.9 12.4002 150.9 8.30023 153.5 4.40023C155.5 1.30023 158.4 -0.199769 162.1 0.200231C156.9 1.80023 154.1 5.30023 154 10.8002C154 13.2002 154.8 15.3002 156.4 17.2002C157.9 18.9002 159.9 20.0002 162.1 20.7002Z" fill="#FDFDFD"/>
<path d="M238.199 -7.15107e-05C242.799 -0.500072 247.099 2.89993 248.199 7.69993C249.499 12.8999 246.799 18.2999 242.099 20.0999C240.799 20.5999 239.399 20.7999 237.899 20.5999C243.399 18.8999 246.399 15.1999 245.999 9.49993C245.699 4.79993 242.699 1.39993 238.299 0.199928C238.199 0.199928 238.099 0.199928 238.199 -7.15107e-05Z" fill="#FDFDFD"/>
<path d="M236.1 15.7998C238.5 14.6998 240.1 13.0998 240.1 10.3998C240.1 7.69975 238.5 5.99975 236.1 4.99975C237.2 4.29975 239.4 4.89975 240.8 6.19975C242.7 8.09975 243.1 11.0998 241.7 13.3998C240.6 15.4998 238.3 16.4998 236.1 15.7998Z" fill="#FDFDFD"/>
<path d="M163.9 4.99958C158.7 7.09958 158.5 13.6996 163.9 15.8996C162.2 16.4996 160 15.6996 158.6 13.8996C157.1 11.7996 157.1 8.89958 158.7 6.79958C159.8 5.49958 161.9 4.19958 163.9 4.99958Z" fill="#FDFDFD"/>
<path d="M238.2 0C238.2 0.1 238.3 0.2 238.3 0.2C238.1 0.2 237.9 0.2 237.8 0C237.8 0 238.1 0 238.2 0Z" fill="#FDFDFD"/>
<path d="M65.9994 104.9C60.4994 104.9 56.3994 109 56.3994 114.5C56.3994 119.7 60.4994 123.8 65.8994 123.9C71.3994 123.9 75.5994 119.9 75.5994 114.5C75.6994 109.1 71.4994 104.9 65.9994 104.9ZM71.7994 115.9C71.0994 118.9 68.6994 120.7 65.7994 120.6C62.5994 120.5 60.0994 117.7 60.0994 114.3C60.0994 109.7 64.4994 106.8 68.4994 108.6C70.9994 109.8 72.4994 113 71.7994 115.9Z" fill="#FDFDFD"/>
<path d="M156.9 104.9C151.4 104.9 147.3 109 147.3 114.5C147.3 119.7 151.5 123.8 156.9 123.8C162.4 123.8 166.5 119.7 166.5 114.3C166.5 109 162.3 104.9 156.9 104.9ZM162.3 117C161.2 119.5 158.9 120.9 156.3 120.7C153.6 120.4 151.5 118.4 151.1 115.8C151 115.3 150.9 114.9 151 114.6C151 110.3 154.7 107.4 158.6 108.5C162 109.3 163.8 113.5 162.3 117Z" fill="#FDFDFD"/>
<path d="M118.199 116.901C117.799 115.301 116.799 114.301 115.199 113.701C117.499 112.001 117.599 110.301 117.199 108.701C116.799 106.801 114.999 105.401 112.699 105.201C110.499 105.001 108.399 105.201 106.199 105.101C105.599 105.101 105.399 105.301 105.399 105.901C105.399 111.001 105.399 116.101 105.399 121.201C105.399 121.801 105.399 122.401 105.399 123.001C105.399 123.301 105.499 123.401 105.799 123.401C108.399 123.301 110.999 123.601 113.599 123.301C116.899 123.001 118.899 120.001 118.199 116.901ZM109.399 108.601C109.799 108.301 110.599 108.501 111.299 108.501C111.699 108.501 112.099 108.501 112.399 108.601C113.399 108.901 113.899 109.501 113.899 110.501C113.899 111.601 113.399 112.201 112.399 112.401C111.499 112.601 110.499 112.501 109.599 112.501C109.299 112.501 109.299 112.301 109.299 112.101C109.299 111.601 109.299 111.001 109.299 110.501C109.299 110.501 109.299 110.501 109.299 110.401C109.299 109.801 108.899 108.901 109.399 108.601ZM112.799 120.201C111.699 120.301 110.699 120.301 109.599 120.301C109.199 120.301 109.199 120.101 109.199 119.801C109.199 119.201 109.199 118.601 109.199 117.901C109.199 117.301 109.199 116.701 109.199 116.101C109.199 115.701 109.299 115.601 109.699 115.601C110.699 115.601 111.699 115.601 112.699 115.701C113.999 115.901 114.699 116.701 114.799 117.901C114.899 119.101 114.099 120.001 112.799 120.201Z" fill="#FDFDFD"/>
<path d="M23.6994 116.801C24.9994 119.001 26.3994 121.201 27.7994 123.501C26.4994 123.501 25.3994 123.501 24.1994 123.501C23.8994 123.501 23.7994 123.401 23.6994 123.201C22.1994 120.501 20.5994 117.901 19.0994 115.201C19.0994 115.201 19.0994 115.101 19.0994 115.001C19.8994 114.901 20.7994 115.001 21.6994 114.801C23.1994 114.501 24.0994 113.401 24.1994 111.801C24.1994 110.201 23.3994 108.901 21.8994 108.601C20.7994 108.301 19.5994 108.501 18.4994 108.401C17.8994 108.401 18.0994 108.801 18.0994 109.101C18.0994 113.101 18.0994 117.001 18.0994 121.001C18.0994 121.601 18.0994 122.201 18.0994 122.801C18.0994 123.301 17.9994 123.601 17.3994 123.501C16.5994 123.401 15.8994 123.401 15.0994 123.501C14.4994 123.501 14.3994 123.301 14.3994 122.801C14.3994 118.001 14.3994 113.201 14.3994 108.501C14.3994 107.601 14.3994 106.701 14.3994 105.801C14.3994 105.501 14.4994 105.201 14.8994 105.301C17.5994 105.401 20.2994 105.201 22.8994 105.501C25.6994 105.901 27.4994 107.901 27.6994 110.801C27.7994 112.701 27.3994 114.401 25.9994 115.701C25.2994 116.201 24.5994 116.501 23.6994 116.801Z" fill="#FDFDFD"/>
<path d="M284.8 111.501C284.7 111.501 284.7 111.501 284.6 111.501C283.6 111.601 282.9 111.401 282.2 110.401C280.9 108.501 278.9 107.801 276.6 108.301C274.2 108.801 272.7 110.501 272.1 112.801C271.3 115.901 272.9 119.201 275.7 120.301C278.3 121.301 280.9 120.401 282.5 118.101C282.8 117.601 283.2 117.401 283.7 117.501C284.4 117.501 285.1 117.501 285.9 117.501C286.8 117.501 286.9 117.501 286.5 118.401C285.2 121.301 283 123.101 279.9 123.701C274.5 124.901 269.5 121.501 268.4 116.101C267.4 110.901 271.1 105.701 276.4 105.001C280.8 104.401 284.9 106.701 286.5 110.601C286.9 111.501 286.9 111.501 285.9 111.501C285.5 111.501 285.2 111.501 284.8 111.501Z" fill="#FDFDFD"/>
<path d="M317.399 117.9H317.499C317.999 117.9 318.499 117.8 318.899 117.9C319.499 118.1 319.199 118.7 319.399 119.2C319.899 120.4 321.099 121 322.299 120.8C323.599 120.5 324.299 119.5 324.199 118.2C324.099 117.4 323.699 117 323.099 116.6C322.199 116.1 321.199 115.7 320.199 115.3C319.599 115 318.999 114.8 318.399 114.5C315.099 112.6 314.899 108.1 318.099 106C320.299 104.6 322.599 104.5 324.999 105.6C326.699 106.4 327.399 107.9 327.699 109.7C327.699 110.1 327.599 110.2 327.299 110.2C326.399 110.2 325.599 110.2 324.699 110.2C324.199 110.2 324.099 110.1 323.999 109.6C323.599 108.2 322.499 107.6 321.199 108C320.399 108.2 319.799 108.7 319.699 109.6C319.499 110.5 319.799 111.1 320.699 111.6C321.599 112.1 322.599 112.5 323.499 112.9C324.199 113.2 324.899 113.5 325.599 113.9C327.699 115.2 328.399 116.9 327.999 119.4C327.599 121.5 326.099 123.1 323.899 123.6C322.499 123.9 320.999 123.9 319.599 123.5C317.299 122.8 315.699 120.7 315.699 118.3C315.699 117.9 315.799 117.8 316.199 117.8C316.499 117.9 316.899 117.9 317.399 117.9Z" fill="#FDFDFD"/>
<path d="M197.899 116C197.899 113.7 197.899 111.4 197.899 109.1C197.899 108.5 197.699 108.4 197.199 108.4C196.299 108.4 195.399 108.4 194.499 108.4C194.099 108.4 193.899 108.3 193.899 107.9C193.899 107.2 193.899 106.4 193.899 105.7C193.899 105.3 193.999 105.2 194.399 105.2C197.899 105.2 201.499 105.2 204.999 105.2C205.399 105.2 205.499 105.4 205.499 105.7C205.499 106.4 205.499 107.2 205.499 107.9C205.499 108.3 205.399 108.4 204.999 108.4C204.099 108.4 203.199 108.4 202.299 108.4C201.599 108.3 201.499 108.6 201.499 109.3C201.499 113.8 201.499 118.2 201.499 122.7C201.499 123.4 201.299 123.6 200.599 123.6C199.899 123.5 199.199 123.6 198.399 123.6C197.899 123.6 197.699 123.5 197.799 123C197.899 120.6 197.899 118.3 197.899 116Z" fill="#FDFDFD"/>
<path d="M234.699 114.301C234.699 111.501 234.699 108.701 234.699 105.801C234.699 105.301 234.799 105.101 235.399 105.101C236.199 105.101 236.999 105.101 237.899 105.101C238.299 105.101 238.399 105.201 238.399 105.601C238.399 111.401 238.399 117.101 238.399 122.901C238.399 123.301 238.299 123.401 237.899 123.401C237.099 123.401 236.299 123.401 235.399 123.401C234.899 123.401 234.699 123.301 234.699 122.701C234.699 120.001 234.699 117.201 234.699 114.301Z" fill="#FDFDFD"/>
</g>
<defs>
<clipPath id="clip0_152_17639">
<rect width="342.3" height="129.6" fill="white"/>
</clipPath>
</defs>
</svg>
