<svg xmlns="http://www.w3.org/2000/svg" width="110" height="108" fill="none" viewBox="0 0 110 108"><path fill="#fff" d="M55 0C24.6125 0 0 24.6125 0 55C0 79.3375 15.7437 99.8938 37.6062 107.181C40.3562 107.662 41.3875 106.012 41.3875 104.569C41.3875 103.262 41.3188 98.9313 41.3188 94.325C27.5 96.8688 23.925 90.9562 22.825 87.8625C22.2062 86.2812 19.525 81.4 17.1875 80.0938C15.2625 79.0625 12.5125 76.5187 17.1187 76.45C21.45 76.3812 24.5438 80.4375 25.575 82.0875C30.525 90.4062 38.4313 88.0688 41.5938 86.625C42.075 83.05 43.5187 80.6437 45.1 79.2687C32.8625 77.8937 20.075 73.15 20.075 52.1125C20.075 46.1312 22.2062 41.1812 25.7125 37.3312C25.1625 35.9562 23.2375 30.3188 26.2625 22.7563C26.2625 22.7563 30.8687 21.3125 41.3875 28.3938C45.7875 27.1562 50.4625 26.5375 55.1375 26.5375C59.8125 26.5375 64.4875 27.1562 68.8875 28.3938C79.4062 21.2438 84.0125 22.7563 84.0125 22.7563C87.0375 30.3188 85.1125 35.9562 84.5625 37.3312C88.0687 41.1812 90.2 46.0625 90.2 52.1125C90.2 73.2188 77.3438 77.8937 65.1063 79.2687C67.1 80.9875 68.8187 84.2875 68.8187 89.4437C68.8187 96.8 68.75 102.713 68.75 104.569C68.75 106.012 69.7812 107.731 72.5312 107.181C83.4514 103.498 92.9409 96.4815 99.6628 87.1202C106.385 77.7589 110 66.5246 110 55C110 24.6125 85.3875 0 55 0Z"/></svg>