<svg width="110" height="110" viewBox="0 0 110 110" fill="none" xmlns="http://www.w3.org/2000/svg">
<g clip-path="url(#clip0_13_334)">
<path d="M64.4479 54.5417C64.4479 55.1875 64.3854 55.8229 64.2604 56.4531C64.1354 57.0833 63.9531 57.6979 63.7031 58.2917C63.4583 58.8854 63.1562 59.4531 62.802 59.9896C62.4427 60.5208 62.0416 61.0156 61.5833 61.474C61.1302 61.9271 60.6354 62.3333 60.1041 62.6927C59.5677 63.0469 59.0052 63.349 58.4114 63.599C57.8177 63.8438 57.2083 64.0313 56.5781 64.1563C55.9479 64.2813 55.3125 64.3438 54.6666 64.3438C54.026 64.3438 53.3906 64.2813 52.7604 64.1563C52.1302 64.0313 51.5208 63.8438 50.927 63.599C50.3333 63.349 49.7708 63.0469 49.2343 62.6927C48.7031 62.3333 48.2083 61.9271 47.75 61.474C47.2968 61.0156 46.8906 60.5208 46.5364 59.9896C46.177 59.4531 45.8802 58.8854 45.6302 58.2917C45.3854 57.6979 45.2031 57.0833 45.0729 56.4531C44.9479 55.8229 44.8854 55.1875 44.8854 54.5417C44.8854 53.8958 44.9479 53.2604 45.0729 52.6302C45.2031 52 45.3854 51.3854 45.6302 50.7917C45.8802 50.1979 46.177 49.6302 46.5364 49.0938C46.8906 48.5625 47.2968 48.0677 47.75 47.6094C48.2083 47.1563 48.7031 46.75 49.2343 46.3906C49.7708 46.0313 50.3333 45.7292 50.927 45.4844C51.5208 45.2396 52.1302 45.0521 52.7604 44.9271C53.3906 44.8021 54.026 44.7396 54.6666 44.7396C55.3125 44.7396 55.9479 44.8021 56.5781 44.9271C57.2083 45.0521 57.8177 45.2396 58.4114 45.4844C59.0052 45.7292 59.5677 46.0313 60.1041 46.3906C60.6354 46.75 61.1302 47.1563 61.5833 47.6094C62.0416 48.0677 62.4427 48.5625 62.802 49.0938C63.1562 49.6302 63.4583 50.1979 63.7031 50.7917C63.9531 51.3854 64.1354 52 64.2604 52.6302C64.3854 53.2604 64.4479 53.8958 64.4479 54.5417Z" fill="#53C1DE"/>
<mask id="mask0_13_334" style="mask-type:luminance" maskUnits="userSpaceOnUse" x="0" y="5" width="110" height="98">
<path d="M0 5.33334H109.339V102.667H0V5.33334Z" fill="white"/>
</mask>
<g mask="url(#mask0_13_334)">
<path d="M20.5625 71.9011C21.526 72.2188 22.4896 72.5417 23.4688 72.8229C23.151 74.1042 22.875 75.3698 22.6146 76.6771C20.375 88.5573 22.125 97.9688 27.7188 101.203C33.4844 104.542 43.1771 101.115 52.6198 92.8333C53.3646 92.1719 54.1146 91.4844 54.8594 90.7552C55.7969 91.6771 56.7813 92.5573 57.7604 93.4063C66.901 101.286 75.9323 104.469 81.5104 101.245C87.276 97.9063 89.1562 87.7813 86.724 75.4583C86.5312 74.5156 86.3177 73.5521 86.0781 72.5677C86.7656 72.375 87.4219 72.1615 88.0885 71.9479C100.411 67.8594 109.339 61.2448 109.339 54.4583C109.339 47.974 100.922 41.6823 89.3073 37.6823V37.6771C88.151 37.2917 87 36.9271 85.849 36.5833C86.0417 35.7969 86.2135 35 86.3802 34.2083C89.0104 21.4531 87.276 11.2083 81.4479 7.82814C75.8281 4.59376 66.6667 7.95314 57.401 16.0417C56.4844 16.8333 55.5885 17.6719 54.7344 18.5052C54.1563 17.9479 53.5573 17.3906 52.9583 16.8594C43.2448 8.20835 33.5052 4.57293 27.6771 7.97918C22.0833 11.2344 20.4167 20.8854 22.7656 32.9479C23 34.1458 23.2552 35.3177 23.5521 36.5208C22.1875 36.9063 20.8438 37.3333 19.5781 37.7865C8.17708 41.7448 0 47.9948 0 54.4583C0 61.1406 8.70833 67.8333 20.5625 71.9011ZM49.6094 89.3386C46.0833 92.5677 42.0052 95.1354 37.5625 96.8906C35.1927 98.0261 32.4583 98.1354 30.0208 97.1719C26.6302 95.2031 25.2135 87.6458 27.1406 77.4792C27.375 76.2813 27.6302 75.0833 27.9271 73.9063C32.7083 74.9323 37.5365 75.6406 42.4271 76C45.25 80.0052 48.3385 83.8333 51.651 87.4271C50.9688 88.0886 50.2865 88.7344 49.6042 89.3333L49.6094 89.3386ZM76.7292 49.1511C75.724 47.2656 74.6979 45.3854 73.6302 43.5417C72.5833 41.724 71.4948 39.9271 70.3646 38.1511C73.8021 38.5781 77.0938 39.1563 80.1667 39.8646C79.1823 43.0313 78.0312 46.1146 76.7292 49.1511ZM76.7708 59.8073C78.1354 62.9115 79.3333 66.0573 80.375 69.2865C77.0625 70.0365 73.7188 70.6146 70.3385 71C71.4948 69.2031 72.5833 67.3594 73.651 65.5208C74.7396 63.6354 75.7656 61.7344 76.7708 59.8073ZM74.2969 54.4844C72.8698 57.4375 71.3281 60.3438 69.6875 63.2136C68.0677 66.0573 66.3333 68.8177 64.5208 71.5573C61.3438 71.7969 58.0313 71.9011 54.6771 71.9011C51.3229 71.9011 48.0833 71.7969 44.9427 71.599C43.0833 68.8802 41.3333 66.099 39.6875 63.2552C38.0469 60.4063 36.526 57.5156 35.099 54.5625H35.0885C36.4948 51.6094 38.0365 48.7188 39.6562 45.875C41.2812 43.0313 43.0312 40.2708 44.8698 37.5521C48.0729 37.3177 51.3385 37.1875 54.6719 37.1875C58.0104 37.1875 61.2917 37.3177 64.4792 37.5521C66.2917 40.25 68.0208 43.0104 69.6667 45.8333C71.3125 48.6615 72.8438 51.5521 74.2969 54.4844ZM35.6823 43.5833C34.6302 45.4011 33.6094 47.2604 32.6458 49.1458C31.3021 45.9583 30.1667 42.8333 29.2292 39.8177C32.3021 39.1302 35.5729 38.5729 38.9635 38.1458C37.8385 39.9219 36.7292 41.7396 35.6823 43.5833ZM32.651 59.974C33.6354 61.8594 34.6354 63.724 35.7031 65.5625C36.7917 67.4271 37.901 69.2865 39.0781 71.1042C35.75 70.7396 32.4375 70.2083 29.1719 69.5C30.1094 66.4167 31.2865 63.2292 32.651 59.974ZM54.8438 84.1302C52.6667 81.7813 50.4844 79.1719 48.375 76.3646C50.4219 76.4531 52.5365 76.4948 54.6719 76.4948C56.875 76.4948 59.026 76.4531 61.1667 76.3438C59.2031 79.0573 57.0885 81.6511 54.8438 84.1302ZM82.7552 90.5573C82.5573 93.1667 81.2812 95.6042 79.2292 97.2552C75.8333 99.2188 68.5938 96.6563 60.776 89.9323C59.8802 89.1615 58.9844 88.3281 58.0677 87.474C61.3333 83.8594 64.3438 80.0261 67.0781 76.0052C71.9688 75.599 76.8385 74.849 81.6406 73.7604C81.8594 74.6354 82.0469 75.5104 82.224 76.3698C83.2708 80.9948 83.4375 85.8073 82.7552 90.5573ZM84.6094 40.9948C85.7188 41.3125 86.7865 41.6563 87.8125 42C97.7604 45.4219 104.745 50.5208 104.745 54.4115C104.745 58.6094 97.2917 64.0261 86.6354 67.5521C86.0417 67.7448 85.4427 67.9375 84.8229 68.1094C83.3281 63.4427 81.4948 58.8854 79.3802 54.4531C81.4271 50.0886 83.1615 45.5938 84.6094 40.9948ZM60.4115 19.5104C68.3594 12.5781 75.7656 9.8646 79.1406 11.8073C82.75 13.8854 84.1406 22.2708 81.875 33.2917C81.724 34.0208 81.5729 34.7292 81.3854 35.4323C76.6406 34.3646 71.8385 33.5938 67.0104 33.1667C64.2344 29.1771 61.2031 25.3698 57.9115 21.7969C58.7448 21.0052 59.5573 20.2604 60.4115 19.5104ZM54.7135 25.0729C56.9531 27.5104 59.0677 30.0781 61.0312 32.7292C56.8073 32.5417 52.5573 32.5417 48.3281 32.7292C50.4167 29.974 52.5781 27.4063 54.7135 25.0729ZM29.9427 11.9583C33.5313 9.8646 41.4948 12.8594 49.8854 20.3021C50.4167 20.7761 50.9531 21.2917 51.5052 21.8021C48.1927 25.3698 45.1406 29.1771 42.3438 33.1615C37.5208 33.5886 32.7396 34.3386 27.9948 35.3906C27.7188 34.2969 27.4844 33.1823 27.25 32.0677C25.2396 21.7083 26.5625 13.9011 29.9427 11.9583ZM21.0781 42.125C22.2969 41.6979 23.5365 41.3125 24.776 40.9479C26.2292 45.5938 27.9792 50.1563 30.0052 54.5573C27.9531 59.0365 26.1823 63.6563 24.7083 68.3594L24.7031 68.3646C23.8073 68.1094 22.9323 67.8333 22.0573 67.5313C17.5104 66.099 12.3438 63.8281 8.60417 60.8542C6.45313 59.3594 5 57.0469 4.59375 54.4531C4.59375 50.5365 11.3385 45.5313 21.0781 42.125Z" fill="#53C1DE"/>
</g>
</g>
<defs>
<clipPath id="clip0_13_334">
<rect width="110" height="110" fill="white"/>
</clipPath>
</defs>
</svg>
