<svg width="110" height="110" viewBox="0 0 110 110" fill="none" xmlns="http://www.w3.org/2000/svg">
<g clip-path="url(#clip0_13_366)">
<mask id="mask0_13_366" style="mask-type:luminance" maskUnits="userSpaceOnUse" x="5" y="0" width="100" height="110">
<path d="M5.33331 0H104.589V109.333H5.33331V0Z" fill="white"/>
</mask>
<g mask="url(#mask0_13_366)">
<path fill-rule="evenodd" clip-rule="evenodd" d="M52.0364 1C53.8021 0.0104167 55.9791 0.0104167 57.7448 1C66.4791 5.88021 92.7552 20.5625 101.49 25.4427C103.255 26.4271 104.344 28.25 104.344 30.224C104.344 39.9844 104.344 69.349 104.344 79.1094C104.344 81.0833 103.255 82.9062 101.49 83.8958C92.7552 88.7708 66.4791 103.458 57.7448 108.339C55.9791 109.323 53.8021 109.323 52.0364 108.339C43.3073 103.458 17.026 88.7708 8.29165 83.8958C6.52602 82.9062 5.44269 81.0833 5.44269 79.1094C5.44269 69.3542 5.44269 39.9844 5.44269 30.2292C5.44269 28.2552 6.52602 26.4323 8.29685 25.4427C17.026 20.5625 43.3073 5.88021 52.0364 1Z" fill="#283593"/>
</g>
<path fill-rule="evenodd" clip-rule="evenodd" d="M6.22915 81.625C5.54165 80.7031 5.44269 79.8281 5.44269 78.6458C5.44269 68.9479 5.44269 39.75 5.44269 30.0469C5.44269 28.0781 6.52602 26.2656 8.28644 25.2864C16.9896 20.4375 43.1771 5.83852 51.8802 0.984356C53.6406 -1.90139e-05 56.026 0.0208143 57.7916 1.00519C66.4896 5.85415 92.5885 20.3333 101.292 25.1823C101.995 25.5729 102.531 26.0469 103.01 26.6719L6.22915 81.625Z" fill="#5C6BC0"/>
<path fill-rule="evenodd" clip-rule="evenodd" d="M54.8906 18.3958C75.0052 18.3958 91.3281 34.651 91.3281 54.6666C91.3281 74.6875 75.0052 90.9427 54.8906 90.9427C34.7812 90.9427 18.4531 74.6875 18.4531 54.6666C18.4531 34.651 34.7812 18.3958 54.8906 18.3958ZM54.8906 36.5312C64.9479 36.5312 73.1094 44.6562 73.1094 54.6666C73.1094 64.6771 64.9479 72.8073 54.8906 72.8073C44.8385 72.8073 36.6719 64.6771 36.6719 54.6666C36.6719 44.6562 44.8333 36.5312 54.8906 36.5312Z" fill="white"/>
<mask id="mask1_13_366" style="mask-type:luminance" maskUnits="userSpaceOnUse" x="53" y="26" width="52" height="57">
<path d="M53.3333 26.6667H104.589V82.6667H53.3333V26.6667Z" fill="white"/>
</mask>
<g mask="url(#mask1_13_366)">
<path fill-rule="evenodd" clip-rule="evenodd" d="M103.005 26.6979C104.349 27.9531 104.323 29.8386 104.323 31.3229C104.323 41.1563 104.24 69.1198 104.344 78.9531C104.354 79.9792 104.016 81.0625 103.505 81.875L53.8333 54.6667L103.005 26.6979Z" fill="#3949AB"/>
</g>
</g>
<defs>
<clipPath id="clip0_13_366">
<rect width="110" height="110" fill="white"/>
</clipPath>
</defs>
</svg>
