<svg xmlns="http://www.w3.org/2000/svg" width="690" height="200" fill="none" viewBox="0 0 690 200"><circle cx="100" cy="100" r="100" fill="#FD4766"/><path fill="#fff" d="M31.9852 149V55.9091H54.4852V93.2727H91.167V55.9091H113.622V149H91.167V111.591H54.4852V149H31.9852ZM666.985 150.318C663.712 150.318 660.909 149.167 658.576 146.864C656.273 144.561 655.137 141.773 655.167 138.5C655.137 135.288 656.273 132.545 658.576 130.273C660.909 127.97 663.712 126.818 666.985 126.818C670.076 126.818 672.803 127.97 675.167 130.273C677.561 132.545 678.773 135.288 678.803 138.5C678.773 140.682 678.197 142.667 677.076 144.455C675.985 146.242 674.546 147.667 672.758 148.727C671 149.788 669.076 150.318 666.985 150.318Z"/><path fill="#000411" d="M140.235 150.318C136.962 150.318 134.159 149.167 131.826 146.864C129.523 144.561 128.387 141.773 128.417 138.5C128.387 135.288 129.523 132.545 131.826 130.273C134.159 127.97 136.962 126.818 140.235 126.818C143.326 126.818 146.053 127.97 148.417 130.273C150.811 132.545 152.023 135.288 152.053 138.5C152.023 140.682 151.447 142.667 150.326 144.455C149.235 146.242 147.796 147.667 146.008 148.727C144.25 149.788 142.326 150.318 140.235 150.318Z"/><path fill="#FD4766" d="M243.36 149V55.9091H265.86V93.2727H302.542V55.9091H324.997V149H302.542V111.591H265.86V149H243.36ZM358.792 150.182C354.337 150.182 350.383 149.439 346.928 147.955C343.504 146.439 340.792 144.167 338.792 141.136C336.822 138.076 335.837 134.242 335.837 129.636C335.837 125.758 336.519 122.485 337.883 119.818C339.247 117.152 341.125 114.985 343.519 113.318C345.913 111.652 348.671 110.394 351.792 109.545C354.913 108.667 358.247 108.076 361.792 107.773C365.762 107.409 368.959 107.03 371.383 106.636C373.807 106.212 375.565 105.621 376.656 104.864C377.777 104.076 378.337 102.97 378.337 101.545V101.318C378.337 98.9848 377.534 97.1818 375.928 95.9091C374.322 94.6364 372.156 94 369.428 94C366.489 94 364.125 94.6364 362.337 95.9091C360.55 97.1818 359.413 98.9394 358.928 101.182L338.428 100.455C339.034 96.2121 340.595 92.4242 343.11 89.0909C345.656 85.7273 349.141 83.0909 353.565 81.1818C358.019 79.2424 363.368 78.2727 369.61 78.2727C374.065 78.2727 378.171 78.803 381.928 79.8636C385.686 80.8939 388.959 82.4091 391.747 84.4091C394.534 86.3788 396.686 88.803 398.201 91.6818C399.747 94.5606 400.519 97.8485 400.519 101.545V149H379.61V139.273H379.065C377.822 141.636 376.231 143.636 374.292 145.273C372.383 146.909 370.125 148.136 367.519 148.955C364.944 149.773 362.034 150.182 358.792 150.182ZM365.656 135.636C368.05 135.636 370.201 135.152 372.11 134.182C374.05 133.212 375.595 131.879 376.747 130.182C377.898 128.455 378.474 126.455 378.474 124.182V117.545C377.837 117.879 377.065 118.182 376.156 118.455C375.277 118.727 374.307 118.985 373.247 119.227C372.186 119.47 371.095 119.682 369.974 119.864C368.853 120.045 367.777 120.212 366.747 120.364C364.656 120.697 362.868 121.212 361.383 121.909C359.928 122.606 358.807 123.515 358.019 124.636C357.262 125.727 356.883 127.03 356.883 128.545C356.883 130.848 357.701 132.606 359.337 133.818C361.004 135.03 363.11 135.636 365.656 135.636ZM459.701 175.182V137.682H459.247C458.307 139.833 456.974 141.848 455.247 143.727C453.519 145.606 451.353 147.121 448.747 148.273C446.171 149.424 443.125 150 439.61 150C434.459 150 429.777 148.667 425.565 146C421.353 143.333 417.989 139.333 415.474 134C412.959 128.667 411.701 122.045 411.701 114.136C411.701 105.924 413.004 99.1667 415.61 93.8636C418.216 88.5606 421.625 84.6364 425.837 82.0909C430.08 79.5455 434.641 78.2727 439.519 78.2727C443.186 78.2727 446.322 78.9091 448.928 80.1818C451.534 81.4242 453.686 83.0303 455.383 85C457.08 86.9697 458.368 89.0151 459.247 91.1364H459.928V79.1818H481.928V175.182H459.701ZM447.337 132.682C450.034 132.682 452.337 131.924 454.247 130.409C456.156 128.864 457.625 126.697 458.656 123.909C459.686 121.121 460.201 117.848 460.201 114.091C460.201 110.273 459.686 106.985 458.656 104.227C457.656 101.47 456.186 99.3485 454.247 97.8636C452.337 96.3788 450.034 95.6364 447.337 95.6364C444.58 95.6364 442.247 96.3939 440.337 97.9091C438.428 99.4242 436.974 101.561 435.974 104.318C435.004 107.076 434.519 110.333 434.519 114.091C434.519 117.848 435.019 121.121 436.019 123.909C437.019 126.697 438.459 128.864 440.337 130.409C442.247 131.924 444.58 132.682 447.337 132.682ZM541.031 118.864V79.1818H563.212V149H542.031V136H541.303C539.758 140.273 537.122 143.667 533.394 146.182C529.697 148.667 525.228 149.909 519.985 149.909C515.228 149.909 511.046 148.818 507.44 146.636C503.834 144.455 501.031 141.409 499.031 137.5C497.031 133.561 496.016 128.955 495.985 123.682V79.1818H518.212V119.318C518.243 123.106 519.243 126.091 521.212 128.273C523.182 130.455 525.864 131.545 529.258 131.545C531.47 131.545 533.455 131.061 535.212 130.091C537 129.091 538.409 127.652 539.44 125.773C540.5 123.864 541.031 121.561 541.031 118.864ZM609.997 150.318C602.694 150.318 596.391 148.879 591.087 146C585.815 143.091 581.754 138.955 578.906 133.591C576.087 128.197 574.678 121.788 574.678 114.364C574.678 107.152 576.103 100.848 578.951 95.4545C581.8 90.0303 585.815 85.8182 590.997 82.8182C596.178 79.7879 602.284 78.2727 609.315 78.2727C614.284 78.2727 618.83 79.0455 622.951 80.5909C627.072 82.1364 630.633 84.4242 633.633 87.4545C636.633 90.4848 638.966 94.2273 640.633 98.6818C642.3 103.106 643.133 108.182 643.133 113.909V119.455H582.451V106.545H622.451C622.421 104.182 621.86 102.076 620.769 100.227C619.678 98.3788 618.178 96.9394 616.269 95.9091C614.391 94.8485 612.224 94.3182 609.769 94.3182C607.284 94.3182 605.057 94.8788 603.087 96C601.118 97.0909 599.557 98.5909 598.406 100.5C597.254 102.379 596.648 104.515 596.587 106.909V120.045C596.587 122.894 597.148 125.394 598.269 127.545C599.391 129.667 600.981 131.318 603.042 132.5C605.103 133.682 607.557 134.273 610.406 134.273C612.375 134.273 614.163 134 615.769 133.455C617.375 132.909 618.754 132.106 619.906 131.045C621.057 129.985 621.921 128.682 622.497 127.136L642.906 127.727C642.057 132.303 640.194 136.288 637.315 139.682C634.466 143.045 630.724 145.667 626.087 147.545C621.451 149.394 616.087 150.318 609.997 150.318Z"/></svg>