<svg xmlns="http://www.w3.org/2000/svg" width="200" height="200" fill="none" viewBox="0 0 200 200"><circle cx="100" cy="100" r="100" fill="#FD4766"/><path fill="#fff" d="M31.9852 149V55.9091H54.4852V93.2727H91.167V55.9091H113.622V149H91.167V111.591H54.4852V149H31.9852Z"/><path fill="#00061B" d="M140.235 150.318C136.962 150.318 134.159 149.167 131.826 146.864C129.523 144.561 128.387 141.773 128.417 138.5C128.387 135.288 129.523 132.545 131.826 130.273C134.159 127.97 136.962 126.818 140.235 126.818C143.326 126.818 146.053 127.97 148.417 130.273C150.811 132.545 152.023 135.288 152.053 138.5C152.023 140.682 151.447 142.667 150.326 144.455C149.235 146.242 147.796 147.667 146.008 148.727C144.25 149.788 142.326 150.318 140.235 150.318Z"/></svg>