<svg width="111" height="110" viewBox="0 0 111 110" fill="none" xmlns="http://www.w3.org/2000/svg">
<g clip-path="url(#clip0_13_347)">
<mask id="mask0_13_347" style="mask-type:luminance" maskUnits="userSpaceOnUse" x="0" y="0" width="110" height="110">
<path d="M0.5 0H109.839V109.333H0.5V0Z" fill="white"/>
</mask>
<g mask="url(#mask0_13_347)">
<path d="M107.776 49.8021L60.0364 2.0625C59.7083 1.73437 59.3542 1.44271 58.9687 1.1875C58.5885 0.932292 58.1823 0.713541 57.7552 0.536459C57.3281 0.359375 56.8854 0.223959 56.4323 0.135416C55.9792 0.0468749 55.5208 0 55.0573 0C54.5989 0 54.1406 0.0468749 53.6875 0.135416C53.2344 0.223959 52.7917 0.359375 52.3646 0.536459C51.9375 0.713541 51.5312 0.932292 51.1458 1.1875C50.7656 1.44271 50.4062 1.73437 50.0833 2.0625L40.1719 11.974L52.7448 24.5469C55.6719 23.5208 59.0208 24.224 61.3489 26.5521C61.9062 27.1094 62.3698 27.7292 62.75 28.4167C63.1302 29.1042 63.4062 29.8281 63.5833 30.5938C63.7604 31.3594 63.8281 32.1354 63.7864 32.9167C63.7396 33.7031 63.5937 34.4635 63.3333 35.2083L75.4531 47.3281C78.3854 46.3125 81.7708 46.9688 84.1094 49.3125C84.5 49.7031 84.8437 50.125 85.151 50.5833C85.4583 51.0417 85.7135 51.526 85.9271 52.0312C86.1354 52.5417 86.2969 53.0677 86.4062 53.6042C86.5104 54.1458 86.5677 54.6927 86.5677 55.2396C86.5677 55.7917 86.5104 56.3385 86.4062 56.875C86.2969 57.4167 86.1406 57.9427 85.9271 58.4479C85.7187 58.9583 85.4583 59.4427 85.151 59.901C84.849 60.3542 84.5 60.7813 84.1094 61.1667C83.7187 61.5573 83.2969 61.9063 82.8385 62.2083C82.3802 62.5156 81.901 62.776 81.3906 62.9844C80.8802 63.1979 80.3594 63.3542 79.8177 63.4635C79.276 63.5677 78.7344 63.625 78.1823 63.6198C77.6302 63.6198 77.0885 63.5677 76.5469 63.4583C76.0052 63.3542 75.4844 63.1927 74.974 62.9844C74.4635 62.7708 73.9844 62.5156 73.526 62.2083C73.0677 61.901 72.6458 61.5521 72.2552 61.1615C69.7969 58.7031 69.1875 55.0833 70.4323 52.0521L59.1302 40.75V70.4896C59.9531 70.901 60.6927 71.4271 61.3489 72.0781C61.7396 72.4688 62.0885 72.8906 62.3906 73.349C62.6979 73.8021 62.9531 74.2865 63.1667 74.7969C63.375 75.3021 63.5364 75.8281 63.6406 76.3698C63.75 76.9062 63.8021 77.4531 63.8021 78C63.8021 78.5521 63.75 79.099 63.6406 79.6354C63.5364 80.1771 63.375 80.6979 63.1667 81.2083C62.9531 81.7188 62.6979 82.1979 62.3906 82.6562C62.0885 83.1146 61.7396 83.5365 61.3489 83.9271C60.9583 84.3177 60.5364 84.6615 60.0781 84.9688C59.625 85.276 59.1406 85.5312 58.6302 85.7448C58.125 85.9531 57.5989 86.1146 57.0573 86.2188C56.5208 86.3281 55.9739 86.3802 55.4271 86.3802C54.875 86.3802 54.3281 86.3281 53.7917 86.2188C53.25 86.1146 52.7292 85.9531 52.2187 85.7448C51.7083 85.5312 51.2292 85.276 50.7708 84.9688C50.3125 84.6615 49.8906 84.3177 49.5 83.9271C49.1094 83.5365 48.7604 83.1146 48.4583 82.6562C48.151 82.1979 47.8906 81.7188 47.6823 81.2083C47.4687 80.7031 47.3125 80.1771 47.2031 79.6354C47.0989 79.099 47.0417 78.5521 47.0417 78C47.0417 77.4531 47.0989 76.9062 47.2031 76.3646C47.3125 75.8281 47.4687 75.3021 47.6823 74.7969C47.8906 74.2865 48.151 73.8021 48.4583 73.349C48.7604 72.8906 49.1094 72.4635 49.5 72.0781C50.3125 71.2708 51.2083 70.6615 52.2448 70.25V40.2292C51.2448 39.8177 50.3125 39.2135 49.5 38.401C48.9114 37.8125 48.4219 37.151 48.0312 36.4219C47.6406 35.6875 47.3646 34.9115 47.2031 34.0938C47.0417 33.2813 47.0052 32.4583 47.0885 31.6302C47.1719 30.8021 47.375 30.0052 47.6979 29.2396L35.2917 16.8438L2.56249 49.5417C2.23436 49.8698 1.9427 50.224 1.68228 50.6094C1.42707 50.9948 1.20832 51.401 1.03124 51.8281C0.854156 52.2552 0.723948 52.6979 0.630198 53.151C0.541656 53.6042 0.494781 54.0625 0.494781 54.526C0.494781 54.9844 0.541656 55.4427 0.630198 55.8958C0.723948 56.349 0.854156 56.7917 1.03124 57.2188C1.20832 57.6458 1.42707 58.0521 1.68228 58.4375C1.9427 58.8229 2.23436 59.1771 2.56249 59.5052L50.3021 107.234C50.625 107.562 50.9844 107.854 51.3646 108.109C51.75 108.37 52.1562 108.583 52.5833 108.76C53.0104 108.938 53.4531 109.073 53.9062 109.161C54.3594 109.255 54.8177 109.297 55.276 109.297C55.7396 109.297 56.1979 109.255 56.651 109.161C57.1042 109.073 57.5469 108.938 57.9739 108.76C58.401 108.583 58.8073 108.37 59.1875 108.109C59.5729 107.854 59.9271 107.562 60.2552 107.234L107.776 59.7917C108.099 59.4688 108.391 59.1094 108.651 58.7292C108.906 58.3438 109.125 57.9375 109.302 57.5104C109.479 57.0833 109.615 56.6406 109.703 56.1875C109.792 55.7344 109.839 55.276 109.839 54.8125C109.839 54.349 109.792 53.8958 109.703 53.4375C109.615 52.9844 109.479 52.5469 109.302 52.1198C109.125 51.6927 108.906 51.2865 108.651 50.901C108.391 50.5156 108.099 50.1615 107.776 49.8333" fill="#F03C2E"/>
</g>
</g>
<defs>
<clipPath id="clip0_13_347">
<rect width="110" height="110" fill="white" transform="translate(0.5)"/>
</clipPath>
</defs>
</svg>
